<?xml version="1.0" standalone="no"?>
<!DOCTYPE svg PUBLIC "-//W3C//DTD SVG 20010904//EN"
 "http://www.w3.org/TR/2001/REC-SVG-20010904/DTD/svg10.dtd">
<svg version="1.0" xmlns="http://www.w3.org/2000/svg"
 width="644.000000pt" height="300.000000pt" viewBox="0 0 644.000000 300.000000"
 preserveAspectRatio="xMidYMid meet">
<metadata>
Created by potrace 1.16, written by Peter Selinger 2001-2019
</metadata>
<g transform="translate(0.000000,300.000000) scale(0.100000,-0.100000)"
fill="#000000" stroke="none">
<path d="M0 1500 l0 -1500 3220 0 3220 0 0 1500 0 1500 -1435 0 c-1109 0
-1435 -3 -1435 -12 0 -9 -3 -9 -12 0 -9 9 -419 12 -1785 12 l-1773 0 0 -1500z
m2635 759 c27 -12 58 -30 69 -40 11 -11 24 -19 28 -19 11 0 120 -79 130 -94 5
-7 8 -5 8 5 0 8 -6 21 -12 28 -11 10 -10 11 5 6 9 -4 17 -11 17 -15 0 -4 14
-13 31 -21 28 -11 33 -10 45 6 18 25 18 32 -3 38 -60 19 -145 56 -130 56 23 1
133 -42 210 -82 32 -16 61 -27 64 -23 4 3 2 6 -4 6 -6 0 -8 12 -5 26 l5 26 21
-26 c16 -21 28 -26 53 -23 37 4 73 39 73 71 1 20 2 20 14 -3 13 -24 14 -24 21
20 11 68 21 78 35 35 6 -20 15 -36 20 -36 4 0 13 -14 20 -31 l13 -31 16 26
c18 29 37 36 26 9 -4 -10 -10 -29 -12 -43 l-5 -25 17 24 c16 21 19 21 27 7 5
-9 21 -16 36 -16 21 0 24 -2 12 -10 -12 -8 -9 -10 13 -10 15 0 30 7 33 15 4 8
12 15 20 15 8 0 14 5 14 10 0 6 8 10 18 10 16 -1 16 -1 0 -14 -29 -21 -21 -33
30 -44 46 -11 191 -27 224 -26 9 0 15 -4 12 -8 -6 -9 62 0 81 10 25 15 297 -6
314 -24 3 -3 -12 -4 -34 0 -22 3 -71 8 -109 12 l-68 7 15 -24 c16 -24 64 -45
210 -91 l78 -24 5 23 c4 12 10 20 16 17 5 -3 4 -12 -3 -20 -6 -8 -9 -18 -5
-21 4 -4 11 -1 16 6 6 11 11 9 21 -8 8 -11 22 -21 31 -21 10 0 18 -5 18 -11 0
-6 6 -9 14 -6 8 3 20 -1 26 -9 7 -8 19 -14 27 -14 8 0 26 -6 41 -14 15 -7 42
-17 59 -21 28 -5 32 -4 27 9 -8 20 -2 20 41 2 27 -11 32 -19 28 -35 -3 -12 -1
-21 6 -21 21 0 133 -103 144 -135 5 -12 13 -14 29 -9 20 6 21 5 10 -9 -8 -9
-11 -21 -7 -27 11 -18 26 0 23 28 -4 31 17 41 25 11 3 -12 10 -18 17 -14 6 4
9 1 8 -7 -2 -9 10 -13 37 -14 76 -3 80 -6 20 -18 -51 -9 -61 -15 -69 -37 -7
-22 -3 -36 26 -85 29 -47 34 -61 25 -76 -8 -12 -14 -14 -22 -7 -7 8 -6 13 2
16 9 3 8 14 -5 41 -9 20 -20 38 -24 40 -4 2 -18 21 -30 43 -20 36 -45 49 -62
32 -4 -4 3 -16 16 -26 16 -13 19 -20 10 -24 -6 -2 -10 -9 -6 -14 3 -5 0 -9 -7
-9 -18 0 23 -29 42 -30 18 0 62 -44 53 -53 -3 -3 -13 -3 -22 1 -11 3 -6 -8 13
-30 17 -19 34 -33 38 -31 5 3 15 -3 22 -13 19 -25 18 -6 0 26 -16 28 -18 40
-7 40 4 0 20 -29 37 -65 16 -35 31 -62 34 -60 2 3 11 -1 19 -7 8 -7 22 -13 31
-13 9 0 17 -6 17 -12 4 -37 4 -38 14 -23 7 12 12 12 29 -5 25 -22 21 -28 -18
-30 -25 -1 -30 3 -35 27 -3 16 -12 28 -21 28 -8 0 -15 5 -15 10 0 6 -4 10 -10
10 -9 0 -7 -14 10 -55 16 -39 31 -107 26 -112 -3 -3 -8 0 -10 8 -2 8 -9 28
-14 44 -6 21 -14 29 -27 27 -17 -3 -17 -3 0 15 17 17 17 18 1 21 -10 2 -15 10
-12 20 9 29 -7 44 -35 33 l-24 -10 25 -1 c23 -1 23 -2 5 -9 -11 -5 -24 -6 -29
-3 -5 3 -6 -3 -3 -13 8 -19 -10 -48 -24 -39 -5 2 -11 -6 -15 -20 -3 -14 -14
-28 -24 -31 -23 -7 -53 -41 -57 -64 -4 -27 22 -44 61 -39 19 2 32 0 30 -4 -3
-4 -12 -8 -19 -8 -9 0 -12 -6 -8 -16 4 -11 8 -12 13 -4 4 6 20 9 40 5 29 -5
32 -4 20 10 -8 10 -9 15 -1 15 11 0 15 -13 12 -37 -1 -7 5 -13 14 -13 10 0 13
-5 9 -12 -4 -7 -3 -8 5 -4 9 6 9 11 1 21 -6 7 -10 17 -9 21 4 23 -3 34 -21 34
-11 0 -20 4 -20 10 0 5 -6 7 -14 4 -8 -3 -16 4 -19 17 -5 19 -8 20 -22 9 -21
-18 -31 -5 -11 15 9 9 16 22 16 28 0 8 3 8 11 0 6 -6 18 -9 25 -6 8 3 14 0 14
-6 0 -6 -4 -11 -10 -11 -5 0 -6 -8 -3 -17 4 -11 8 -12 11 -5 6 19 22 14 22 -7
0 -10 9 -21 21 -24 15 -4 19 -2 15 9 -3 8 -1 14 5 14 16 0 22 -29 9 -45 -10
-12 -7 -20 14 -46 24 -29 26 -29 24 -7 -2 13 -9 28 -17 34 -12 9 -12 12 -1 19
9 5 15 4 18 -4 3 -8 8 -6 18 6 13 17 13 17 14 -4 0 -27 18 -39 33 -24 8 8 8
11 -1 11 -7 0 -12 8 -10 18 2 12 -5 18 -24 20 -17 2 -28 9 -28 18 0 11 6 13
20 9 11 -4 20 -2 20 4 0 14 37 14 45 1 3 -5 22 -10 41 -10 22 0 33 -4 29 -10
-4 -6 -14 -9 -23 -6 -10 3 -27 0 -40 -7 -19 -11 -20 -15 -10 -29 9 -11 19 -13
33 -8 11 5 14 9 8 9 -19 1 -16 21 3 21 12 0 15 -6 10 -25 -4 -15 -2 -25 4 -25
6 0 8 -5 4 -11 -3 -6 -9 -7 -13 -3 -9 13 -31 16 -31 4 0 -6 6 -13 14 -16 8 -3
19 -18 25 -34 12 -36 86 -78 95 -55 7 18 37 20 34 3 -2 -7 7 -14 20 -16 12 -2
20 -8 16 -13 -3 -5 -10 -7 -15 -4 -5 4 -9 -3 -9 -14 0 -22 14 -28 25 -11 7 12
25 4 25 -12 0 -5 -7 -8 -15 -4 -9 3 -15 0 -15 -10 0 -24 -24 -11 -30 17 -5 20
-7 21 -13 7 -5 -15 -12 -13 -45 20 -64 61 -79 71 -100 65 -11 -2 -29 0 -40 6
-16 9 -21 7 -25 -8 -3 -13 -1 -18 9 -14 8 3 12 -3 11 -16 -1 -13 -6 -20 -14
-17 -7 3 -13 1 -13 -4 0 -6 -8 -10 -17 -10 -13 0 -14 3 -6 11 13 13 6 39 -9
39 -10 0 -38 25 -38 35 0 3 9 1 19 -5 25 -13 28 -13 35 5 4 11 -2 14 -26 11
-41 -4 -45 -18 -16 -46 16 -15 19 -24 11 -27 -19 -7 10 -32 45 -39 26 -5 30
-3 36 21 6 22 10 25 21 15 8 -6 11 -19 8 -27 -5 -12 -2 -15 10 -10 18 7 21 -3
11 -40 -4 -13 -11 -20 -20 -16 -8 3 -14 0 -14 -6 0 -7 6 -14 14 -17 8 -3 13
-17 12 -30 -1 -23 -4 -25 -31 -20 -16 4 -31 11 -33 16 -2 6 -8 10 -13 10 -6 0
-8 -4 -5 -9 11 -17 -55 -21 -85 -6 -16 9 -29 13 -29 10 0 -3 -9 4 -20 15 -11
11 -31 20 -45 20 -14 0 -25 5 -25 10 0 21 29 21 69 1 40 -21 95 -25 116 -10 6
4 23 6 37 5 15 -2 25 0 23 5 -3 4 2 15 11 23 21 21 11 54 -11 36 -19 -16 -134
-7 -146 11 -5 8 -14 14 -21 15 -31 1 -78 16 -78 25 0 5 -4 9 -10 9 -5 0 -31
13 -56 30 -50 31 -75 31 -36 0 29 -24 28 -32 -3 -20 -19 7 -25 6 -25 -4 0 -7
3 -16 7 -20 48 -48 -84 -78 -153 -35 -19 11 -34 16 -34 10 0 -6 -7 -11 -16
-11 -10 0 -13 6 -9 19 4 12 0 21 -11 25 -28 11 -38 -9 -19 -38 23 -35 15 -51
-28 -51 -21 0 -37 3 -37 6 0 3 -11 19 -25 35 -19 22 -27 26 -37 16 -9 -9 -7
-19 12 -43 17 -24 20 -36 13 -48 -6 -9 -8 -31 -5 -50 3 -25 15 -41 48 -64 43
-30 62 -57 27 -38 -55 30 -113 94 -128 141 -6 21 -31 66 -40 72 -6 5 -3 8 7 8
19 0 42 -35 33 -50 -3 -6 1 -10 10 -10 9 0 14 -4 10 -9 -3 -5 0 -13 6 -17 15
-9 2 53 -18 84 -13 21 -13 25 3 37 17 12 17 14 -2 41 -10 16 -19 34 -20 39 0
6 -6 21 -11 35 -8 20 -18 25 -39 24 -101 -4 -97 -3 -84 -19 10 -12 10 -15 -2
-15 -8 0 -20 6 -27 13 -11 10 -11 8 -1 -13 12 -23 12 -24 -3 -11 -15 12 -17
11 -17 -12 0 -34 -16 -43 -32 -17 -7 11 -16 20 -20 20 -16 0 -49 42 -44 56 3
8 2 14 -3 14 -4 0 -6 11 -3 25 3 17 0 25 -9 26 -8 0 -5 4 6 9 11 5 14 9 6 9
-7 1 -29 17 -48 36 -19 19 -47 38 -62 41 -42 9 -85 27 -93 38 -5 7 -8 5 -8 -5
0 -9 9 -19 20 -22 11 -3 20 -9 20 -14 0 -21 -49 -33 -157 -40 -111 -6 -134
-21 -35 -22 45 -1 60 -24 22 -36 -11 -3 -20 -10 -20 -15 0 -5 -22 -16 -50 -25
-27 -9 -50 -21 -50 -26 0 -5 -6 -9 -14 -9 -8 0 -16 -7 -20 -15 -4 -12 0 -14
22 -9 l27 6 -24 -20 c-13 -11 -22 -26 -19 -34 7 -18 -11 -43 -39 -52 -12 -4
-25 -16 -28 -26 -3 -10 -34 -39 -67 -64 -55 -41 -68 -46 -115 -46 l-52 0 -26
55 c-15 30 -27 63 -28 74 0 11 -6 19 -11 18 -5 -1 -11 10 -12 25 -2 16 1 28 7
28 5 0 9 7 9 15 0 18 12 19 27 4 9 -9 11 -5 9 15 -3 20 1 26 15 26 13 0 17 -5
13 -17 -3 -10 2 -6 11 10 8 15 20 27 25 27 6 0 11 21 11 48 1 48 14 115 19 97
7 -24 8 -33 9 -87 1 -44 5 -58 16 -58 8 0 15 4 15 9 0 14 38 20 44 7 2 -6 5
-1 5 11 1 12 6 34 11 49 8 21 14 24 22 16 17 -17 28 -15 22 3 -4 8 -14 15 -23
16 -12 0 -10 3 7 11 12 6 22 15 22 20 0 11 -7 10 -31 -2 -15 -9 -21 -7 -25 5
-3 8 -12 15 -20 15 -8 0 -14 6 -14 13 -1 7 -6 5 -14 -6 -15 -20 -27 -11 -17
13 7 17 41 23 41 8 0 -5 4 -7 9 -4 5 3 11 -1 15 -9 7 -19 26 -19 26 0 0 9 6
12 15 9 8 -4 12 -10 9 -15 -3 -5 -1 -9 4 -9 9 0 22 32 22 58 0 6 -5 12 -11 12
-6 0 -9 -6 -6 -14 3 -8 -1 -17 -10 -20 -11 -5 -14 -1 -10 13 2 10 1 25 -4 32
-7 11 -9 11 -9 1 0 -7 -5 -10 -10 -7 -6 4 -8 11 -5 16 4 5 2 9 -4 9 -5 0 -17
3 -27 7 -13 5 -16 3 -12 -8 4 -10 -1 -15 -12 -15 -10 0 -17 3 -15 7 3 3 -8 4
-23 1 -24 -5 -24 -6 -7 -13 19 -7 19 -8 -2 -8 -16 -1 -23 5 -23 17 0 10 -7 19
-15 19 -8 0 -15 -3 -15 -6 0 -4 -11 -8 -25 -9 -14 -1 -25 3 -25 9 0 5 -4 7
-10 4 -5 -3 -10 -1 -10 5 0 6 -4 8 -10 5 -5 -3 -10 -1 -10 5 0 7 7 10 15 7 8
-4 17 -1 21 5 5 7 2 8 -6 3 -10 -6 -12 -4 -7 9 4 10 3 15 -3 11 -6 -3 -10 0
-11 7 0 10 -2 10 -6 0 -3 -9 -16 -11 -41 -6 -26 5 -38 3 -46 -9 -16 -21 -58
-25 -74 -7 -8 8 -11 9 -7 3 7 -15 -11 -53 -26 -53 -6 0 -7 4 -4 10 3 5 2 18
-4 27 -8 14 -9 11 -6 -14 3 -24 -1 -34 -15 -38 -10 -3 -21 -17 -24 -30 -4 -16
-13 -25 -26 -25 -26 0 -26 17 0 25 11 3 20 15 20 25 0 10 8 21 18 23 10 3 5 5
-12 6 -21 1 -27 -3 -22 -14 6 -16 -21 -35 -41 -28 -6 2 -14 -1 -18 -6 -4 -7 0
-8 11 -4 11 4 15 3 11 -5 -4 -6 7 -20 24 -33 26 -18 33 -19 40 -8 8 12 11 11
20 -4 9 -15 13 -16 26 -5 14 11 16 10 9 -14 -4 -17 -2 -28 4 -28 5 0 10 5 10
10 0 6 7 10 15 10 8 0 15 -4 15 -10 0 -5 -4 -10 -10 -10 -5 0 -7 -7 -4 -15 5
-11 -2 -15 -27 -16 -19 0 -43 -4 -54 -8 -26 -10 -89 4 -143 32 -35 18 -42 27
-40 47 1 14 -1 30 -5 37 -12 18 9 56 46 82 18 14 38 35 44 47 9 20 7 24 -19
37 -28 14 -29 16 -12 26 12 7 15 13 8 18 -15 11 -13 55 3 49 7 -3 15 -1 18 4
4 6 2 10 -4 10 -5 0 -9 9 -8 19 0 10 6 17 12 15 5 -2 16 5 23 17 8 13 9 18 2
14 -20 -13 -60 -13 -60 0 0 9 -11 10 -45 2 -25 -6 -45 -14 -45 -19 0 -5 -5 -6
-11 -2 -16 9 3 20 83 45 37 11 70 24 72 28 3 4 -24 23 -59 41 -35 18 -62 37
-59 42 11 18 -63 -6 -77 -25 -3 -4 -37 -9 -74 -11 -39 -1 -70 -7 -73 -14 -2
-6 -9 -9 -16 -6 -17 6 -40 -40 -33 -66 8 -30 -2 -50 -23 -50 -12 0 -21 -10
-25 -30 -11 -50 -27 -48 -20 2 11 70 -18 89 -89 62 -9 -3 -16 -1 -16 4 0 16
38 25 76 17 27 -4 34 -3 34 9 0 10 -6 13 -17 9 -11 -4 -14 -3 -9 5 4 7 13 12
20 12 8 0 19 7 26 15 7 9 15 13 18 10 3 -3 -3 -14 -13 -25 -10 -11 -13 -20 -8
-20 12 0 69 90 65 102 -1 4 7 10 18 13 11 4 20 11 20 16 0 6 -14 2 -30 -8 -17
-10 -28 -23 -26 -30 3 -6 -1 -17 -9 -23 -10 -8 -13 -7 -11 6 0 9 -5 19 -12 21
-7 3 -12 1 -11 -4 1 -4 -1 -16 -6 -26 -6 -14 -10 -15 -15 -6 -5 7 -15 9 -26 4
-11 -4 -28 -8 -39 -9 -11 -1 -19 -6 -18 -13 2 -7 -4 -10 -12 -7 -10 4 -13 2
-10 -8 4 -9 -5 -29 -19 -46 -20 -23 -26 -42 -28 -83 l-2 -54 -3 53 -4 53 -48
-7 c-34 -4 -56 -2 -78 10 -29 15 -31 14 -36 -4 -3 -11 -10 -20 -16 -20 -8 0
-7 6 1 20 23 36 -3 34 -33 -4 -17 -20 -33 -35 -35 -33 -6 5 26 66 45 86 11 13
11 16 -5 22 -34 14 -51 10 -30 -6 21 -16 18 -19 -8 -9 -9 4 -19 23 -22 45 -6
37 -24 55 -24 24 0 -8 -4 -15 -10 -15 -5 0 -10 -7 -10 -15 0 -8 -7 -15 -15
-15 -8 0 -15 -8 -15 -18 0 -10 -5 -23 -12 -30 -7 -7 -8 -12 -2 -12 5 -1 -2 -8
-16 -16 -24 -14 -23 -15 28 -9 28 3 52 3 52 0 0 -9 -21 -29 -45 -44 -14 -9
-15 -11 -3 -7 10 3 20 1 23 -4 4 -6 2 -10 -3 -10 -5 0 -12 -9 -15 -19 -6 -25
19 -17 50 16 28 29 30 29 29 -6 -1 -16 -5 -27 -10 -24 -5 3 -7 0 -4 -8 3 -8
26 -17 52 -21 64 -9 79 -16 73 -32 -3 -8 2 -16 14 -19 11 -3 17 -1 13 5 -4 6
-1 9 7 6 17 -6 19 -34 1 -30 -25 5 -78 -26 -124 -73 -26 -26 -45 -51 -42 -56
3 -5 0 -9 -5 -9 -6 0 -11 5 -11 10 0 6 -4 10 -9 10 -5 0 -7 -9 -4 -19 3 -11
-4 -28 -16 -40 -12 -12 -21 -28 -21 -37 0 -9 -9 -18 -19 -21 -11 -3 -22 -16
-25 -29 -4 -13 -13 -24 -21 -24 -8 0 -15 -4 -15 -9 0 -5 -3 -16 -6 -25 -4 -10
-1 -16 9 -16 10 0 13 -7 10 -20 -5 -20 -37 -28 -47 -12 -10 16 -65 0 -97 -29
-18 -16 -38 -29 -44 -29 -6 0 -22 -11 -34 -24 -22 -23 -22 -25 -6 -49 9 -14
22 -28 29 -30 20 -8 59 15 72 42 22 44 54 54 54 16 0 -28 12 -32 34 -10 21 21
36 19 36 -6 0 -18 5 -21 30 -17 20 3 30 0 30 -9 0 -9 -17 -13 -60 -14 -33 -1
-63 -3 -67 -4 -5 -1 -27 -5 -50 -10 -24 -4 -43 -11 -43 -15 0 -4 -14 -13 -31
-20 -18 -8 -28 -18 -25 -26 3 -8 -1 -14 -9 -14 -8 0 -15 -4 -15 -9 0 -5 -9
-13 -21 -16 -25 -8 -72 2 -64 15 11 17 -36 23 -49 5 -10 -13 -25 -15 -94 -11
-45 2 -84 1 -86 -2 -5 -9 -52 -7 -89 3 -22 6 -27 12 -24 26 3 11 0 19 -6 19
-8 0 -7 4 1 12 7 7 12 16 12 20 0 12 -48 10 -55 -2 -4 -6 -11 -8 -16 -4 -16 9
27 35 46 28 10 -4 22 1 31 15 8 11 19 21 25 21 15 0 10 -27 -6 -34 -22 -8 -18
-24 8 -32 12 -4 24 -10 27 -15 3 -4 12 -4 20 1 12 7 10 12 -8 29 -14 11 -19
22 -13 25 6 4 20 -3 32 -15 16 -16 21 -18 16 -6 -4 11 -1 17 8 17 9 0 12 6 8
17 -5 12 -2 15 10 10 8 -3 18 -1 21 6 3 7 4 -3 3 -21 -1 -22 -5 -31 -14 -28
-7 3 -13 1 -13 -4 0 -6 12 -10 26 -10 19 0 25 4 20 15 -6 16 -1 19 47 29 15 4
25 11 22 17 -5 7 -12 6 -21 -2 -8 -6 -14 -7 -14 -3 0 5 9 15 20 22 11 7 20 17
20 23 0 8 -4 8 -14 0 -11 -9 -15 -6 -18 19 -3 22 -1 29 8 26 14 -6 23 12 16
32 -4 11 -6 11 -13 0 -7 -10 -12 -10 -26 5 -11 11 -13 17 -5 17 7 0 12 10 10
23 -2 12 2 24 7 25 6 2 18 8 28 14 25 13 68 -15 61 -40 -3 -9 1 -6 10 8 8 14
10 27 5 28 -5 2 -7 8 -3 13 3 5 -9 9 -25 9 -17 0 -31 4 -31 8 0 5 16 8 35 8
43 -1 70 -38 42 -59 -12 -8 -14 -16 -7 -27 5 -8 10 -10 10 -4 0 7 16 10 40 9
22 -1 43 2 47 8 3 6 1 7 -5 3 -6 -3 -17 1 -25 9 -20 19 -31 19 -23 0 3 -8 1
-15 -4 -15 -12 0 -13 20 -1 39 10 16 -9 42 -24 33 -5 -3 -4 2 4 11 12 15 10
17 -15 18 l-29 1 29 8 c29 9 50 5 42 -8 -9 -15 22 -30 49 -23 3 0 8 1 13 2 4
0 11 7 15 15 4 8 13 14 18 14 6 0 8 -4 5 -9 -8 -13 4 -42 15 -35 5 3 7 9 4 14
-3 5 -1 18 4 29 8 15 7 20 -7 24 -9 2 -24 8 -33 11 -11 5 -19 1 -23 -10 -5
-12 -2 -15 11 -10 11 4 8 -1 -7 -14 -14 -11 -32 -20 -40 -20 -10 0 -11 3 -3 8
28 18 18 35 -22 36 -31 1 -40 5 -43 21 -3 17 -1 17 7 5 10 -13 12 -13 21 0 9
13 11 13 19 0 12 -17 22 -10 24 18 0 11 4 19 8 16 4 -2 9 1 11 7 2 6 16 12 31
12 15 0 27 4 27 9 0 5 12 8 27 6 22 -2 28 2 34 25 6 23 4 28 -17 33 -13 3 -24
10 -24 15 0 13 14 11 28 -3 14 -14 15 -12 2 30 -8 32 -7 34 23 47 32 14 32 14
5 15 -15 0 -30 -4 -33 -10 -11 -18 -23 -10 -30 20 -5 23 -14 32 -38 38 -35 10
-47 7 -47 -11 0 -7 4 -6 10 3 6 9 10 10 10 3 0 -6 -5 -15 -11 -19 -8 -5 -6
-10 5 -16 22 -12 20 -23 -6 -36 -13 -6 -17 -11 -10 -11 7 -1 10 -5 7 -11 -3
-6 1 -7 9 -4 9 3 16 1 16 -4 0 -16 -40 -26 -53 -13 -17 17 -50 14 -44 -4 4 -8
1 -17 -5 -21 -6 -4 -8 -3 -5 2 8 14 -9 38 -22 30 -6 -4 -11 -14 -11 -22 0 -8
-5 -12 -10 -9 -16 10 -12 42 6 49 9 3 27 6 40 6 26 0 30 11 13 42 -9 16 -17
19 -42 14 -17 -4 -35 -12 -39 -19 -5 -8 -8 -7 -8 6 0 9 7 17 15 17 8 0 15 4
15 9 0 5 18 8 40 8 22 -1 40 -5 40 -9 0 -5 8 -8 18 -7 10 0 12 3 4 6 -6 2 -9
9 -6 15 3 5 -2 9 -12 8 -43 -5 -47 1 -14 18 21 11 40 15 47 10 6 -5 26 -3 47
6 37 15 48 36 20 36 -8 0 -12 5 -9 10 3 6 1 10 -4 10 -6 0 -11 9 -11 21 0 38
-25 14 -28 -27 -2 -27 0 -35 7 -25 5 8 16 11 26 7 28 -10 10 -18 -46 -21 -30
-2 -55 -8 -60 -16 -7 -12 -9 -11 -9 1 0 9 -3 11 -8 5 -19 -29 -69 -53 -96 -48
-20 4 -31 1 -38 -11 -5 -9 -20 -16 -32 -16 -24 0 -41 24 -30 42 4 6 -2 6 -14
-1 -32 -17 -34 -14 -10 24 13 19 27 35 31 35 5 0 32 20 60 45 29 25 57 45 64
45 6 0 17 26 24 58 6 31 18 68 26 81 8 12 12 33 9 44 -3 12 1 28 10 37 8 8 21
24 29 35 13 18 14 17 8 -19 -4 -26 -3 -37 4 -33 6 4 13 1 16 -7 7 -18 47 -9
47 10 0 8 8 14 18 14 10 0 22 3 26 8 4 4 11 7 14 8 29 3 92 27 92 35 0 5 6 9
13 8 21 -2 57 13 57 25 0 6 5 4 10 -4 5 -8 10 -10 10 -4 0 7 9 14 20 17 11 3
23 14 27 25 9 22 106 132 117 132 4 0 -5 -17 -21 -37 -15 -21 -34 -48 -41 -60
-11 -21 -10 -23 8 -23 11 0 20 4 20 8 0 4 8 8 18 9 9 1 37 9 62 18 25 9 85 27
133 40 49 13 94 29 102 35 7 6 16 26 19 45 4 19 12 35 18 35 5 0 7 -7 4 -16
-3 -9 -9 -27 -12 -41 -7 -24 -5 -25 22 -19 31 8 56 26 36 26 -7 0 -12 5 -12
12 0 9 3 9 12 0 15 -15 84 -16 93 -2 3 6 12 10 18 10 7 0 6 -4 -3 -10 -18 -12
-3 -12 25 -1 18 8 17 10 -12 27 -48 28 -40 37 9 12 38 -20 46 -21 121 -10 44
6 84 9 89 6 6 -4 5 2 -1 13 -6 11 -8 23 -5 25 10 10 -146 118 -171 118 -8 0
-15 4 -15 8 0 5 -10 14 -22 20 -41 20 -11 12 37 -9z m-377 -1362 c0 -19 -6
-23 -34 -22 -19 0 -34 4 -34 8 0 5 -5 5 -10 2 -7 -4 -6 -13 1 -27 6 -12 7 -18
1 -14 -5 3 -25 -1 -43 -9 -19 -8 -30 -14 -25 -15 6 0 1 -6 -10 -14 -18 -14
-18 -15 10 -26 16 -6 26 -13 23 -16 -3 -3 -14 -1 -26 5 -13 7 -22 8 -26 1 -3
-5 1 -10 9 -10 8 0 18 -5 22 -11 4 -8 -1 -9 -17 -4 -22 7 -23 7 -9 -11 8 -10
19 -22 23 -25 11 -8 16 -58 6 -64 -4 -3 -12 3 -18 12 -6 10 -11 15 -11 11 0
-4 -13 -2 -29 3 -38 13 -54 50 -35 78 19 26 3 64 -23 54 -11 -4 -14 -3 -9 5 4
7 13 12 21 12 7 0 15 3 17 8 2 4 16 18 32 32 16 14 26 19 22 13 -4 -7 -2 -13
4 -13 6 0 13 7 16 15 4 8 14 15 23 15 9 0 27 7 41 14 14 8 39 14 56 15 26 1
32 -3 32 -22z m370 -9 c2 -9 -6 -25 -17 -35 -15 -12 -21 -29 -21 -56 0 -33 -6
-45 -40 -76 -22 -20 -40 -42 -40 -50 0 -22 -94 -160 -113 -167 -9 -3 -15 -10
-12 -15 4 -5 1 -9 -4 -9 -6 0 -11 -9 -11 -19 0 -11 -7 -27 -17 -36 -12 -13
-13 -19 -4 -24 9 -6 9 -15 1 -36 -11 -29 -2 -44 28 -45 7 0 10 -4 7 -10 -9
-15 -56 -12 -90 6 -16 9 -39 18 -49 20 -26 5 -37 25 -23 42 6 8 11 52 12 100
1 48 6 96 13 107 11 19 11 18 13 -10 1 -16 1 -38 0 -47 -1 -10 2 -18 8 -18 6
0 8 7 5 15 -5 11 -2 13 10 9 21 -8 20 5 -1 29 -17 19 -17 19 20 13 38 -6 46 1
26 21 -9 9 -6 10 12 6 24 -5 24 -5 4 11 -20 17 -20 17 3 13 12 -3 22 -1 22 4
0 5 -4 9 -10 9 -5 0 -10 5 -10 10 0 6 6 10 13 10 8 0 12 12 12 35 -1 20 2 32
8 28 6 -4 8 2 5 15 -4 15 0 23 13 27 14 5 19 16 19 46 0 21 5 39 10 39 6 0 10
-8 10 -18 0 -13 7 -18 23 -17 12 1 22 8 22 16 0 8 -8 13 -20 11 -18 -2 -18 -2
-2 8 9 6 17 19 17 30 0 37 141 45 148 8z m2228 -626 c12 -8 24 -36 30 -72 2
-14 6 -34 9 -46 3 -12 -2 -28 -13 -37 -21 -19 -88 -38 -108 -30 -24 9 -74 57
-74 70 0 7 -5 13 -11 13 -6 0 -8 9 -4 21 5 13 2 25 -6 30 -7 4 -10 11 -7 14 4
4 13 3 20 -1 20 -13 38 -13 38 -2 0 6 7 8 15 4 8 -3 15 -1 15 4 0 19 31 10 55
-16 23 -24 28 -23 27 6 0 3 -3 15 -7 28 -6 22 1 28 21 14z"/>
<path d="M4183 1533 c9 -2 17 -13 17 -24 0 -21 40 -28 40 -6 0 6 5 4 11 -6 6
-9 14 -15 19 -12 5 3 12 0 16 -6 4 -7 3 -9 -3 -6 -6 4 -16 0 -23 -8 -16 -20
-44 -20 -36 0 3 8 1 15 -4 15 -6 0 -10 -4 -10 -10 0 -5 -7 -10 -16 -10 -10 0
-14 6 -11 15 4 8 2 17 -3 20 -6 4 -10 2 -10 -4 0 -8 -32 -24 -52 -26 -11 0
-22 -15 -11 -15 6 0 13 -9 16 -20 5 -19 25 -25 70 -22 9 1 17 -3 17 -8 0 -6
-16 -10 -35 -10 -37 0 -43 -8 -23 -28 6 -6 9 -14 6 -18 -4 -3 -13 7 -21 22 -8
15 -17 22 -21 16 -4 -6 -15 -2 -31 11 -14 14 -20 26 -15 31 6 6 17 2 30 -9 12
-11 20 -13 20 -6 0 6 -7 14 -15 17 -8 4 -15 12 -15 19 0 8 -5 17 -12 21 -7 5
-8 3 -3 -5 7 -13 -26 -51 -45 -51 -17 0 -11 19 11 30 11 7 18 14 16 17 -3 2
-17 -3 -30 -12 -20 -13 -24 -22 -21 -43 5 -28 23 -55 21 -31 -2 16 4 19 39 19
14 0 23 -4 19 -10 -3 -5 -1 -10 4 -10 6 0 11 -8 11 -17 0 -15 -2 -15 -9 -4 -6
9 -16 11 -27 6 -18 -6 -17 -8 4 -16 12 -4 22 -11 22 -14 0 -4 -6 -3 -12 1 -7
4 -5 -2 5 -13 9 -11 17 -25 17 -31 0 -7 8 -11 18 -10 48 4 60 -2 66 -34 6 -31
2 -47 -10 -36 -3 4 -7 14 -8 25 -3 15 -11 18 -46 16 -53 -3 -92 -26 -83 -50 6
-14 9 -13 25 7 14 17 18 18 18 6 0 -9 16 -23 37 -31 30 -13 35 -18 23 -25 -12
-7 -12 -10 -2 -10 8 0 16 9 19 20 7 28 22 25 16 -2 -3 -17 -2 -19 5 -9 5 7 14
11 20 7 6 -3 16 7 24 24 15 34 46 49 59 29 7 -11 9 -10 9 4 0 9 -4 17 -10 17
-5 0 -10 5 -10 11 0 6 9 9 20 6 11 -3 20 -1 20 4 0 5 5 9 11 9 6 0 8 -9 4 -22
-6 -18 -5 -20 5 -11 8 7 10 18 4 30 -8 19 -11 29 -13 51 0 7 -6 10 -13 6 -7
-4 -8 -3 -4 5 4 6 12 9 17 5 6 -3 19 3 30 15 20 21 20 21 -3 30 -13 6 -36 14
-53 20 -39 13 -10 14 35 1 40 -11 58 5 34 31 -17 19 -7 34 13 18 16 -14 18 2
1 19 -17 17 -2 27 17 12 13 -11 14 -10 10 2 -3 8 -23 21 -43 27 -50 17 -64 20
-52 14 13 -6 13 -33 -1 -33 -6 0 -13 9 -16 20 -4 16 -11 19 -44 15 -30 -4 -39
-2 -39 10 0 9 -9 15 -22 14 -17 -1 -19 -2 -5 -6z"/>
<path d="M4667 1483 c-26 -10 -36 -20 -33 -30 3 -8 1 -11 -4 -8 -6 3 -10 1
-10 -4 0 -6 6 -11 14 -11 22 0 30 -38 11 -56 -14 -15 -15 -14 -11 9 3 18 1 24
-8 21 -8 -3 -16 2 -19 10 -9 23 -38 20 -67 -7 -14 -13 -38 -32 -53 -41 -15
-10 -27 -23 -27 -30 0 -6 -13 -17 -28 -24 -31 -13 -67 -70 -38 -59 10 4 16 -1
18 -16 2 -15 10 -22 27 -23 22 -1 23 0 8 11 -20 14 -22 25 -4 25 16 0 40 -38
32 -51 -10 -15 -48 -6 -80 19 -28 22 -28 22 -47 3 -23 -25 -23 -31 1 -31 23 0
37 -30 19 -41 -7 -4 -15 -3 -19 3 -4 6 -11 8 -17 4 -6 -3 -15 2 -21 11 -8 15
-9 12 -7 -12 2 -16 4 -33 5 -37 2 -10 57 -27 78 -24 10 2 17 10 15 20 -2 9 4
16 12 16 10 0 13 -6 10 -15 -4 -8 -5 -15 -3 -15 2 0 18 -4 34 -9 26 -7 31 -6
31 10 0 12 -4 15 -11 9 -7 -6 -15 -2 -23 11 -7 11 -8 19 -2 19 5 0 10 -5 10
-11 0 -5 4 -8 9 -5 5 3 8 19 7 36 -2 33 19 42 27 13 4 -14 5 -12 6 5 0 12 -3
22 -9 22 -5 0 -10 5 -10 10 0 23 22 8 35 -24 14 -32 17 -34 44 -26 24 7 29 5
24 -6 -3 -8 -9 -11 -14 -8 -5 3 -9 1 -9 -5 0 -5 4 -12 9 -15 13 -8 42 4 35 15
-3 5 4 9 15 9 15 0 19 -5 15 -17 -5 -14 -4 -15 4 -4 6 8 18 11 31 6 16 -5 20
-3 15 9 -3 9 -2 16 4 16 5 0 12 -12 15 -27 5 -24 10 -28 40 -28 32 0 34 2 31
33 -1 19 0 31 3 28 4 -3 7 -16 8 -27 1 -17 9 -23 33 -25 34 -4 43 11 20 34 -8
8 -9 12 -1 12 6 0 13 -5 15 -12 3 -7 10 -8 17 -4 11 7 11 10 0 17 -11 6 -10 9
4 15 9 3 17 14 17 24 0 10 6 20 13 23 9 3 9 8 -2 21 -8 9 -11 19 -8 22 3 3 -1
23 -8 45 l-14 39 24 -6 c15 -4 25 -2 25 5 0 6 -6 11 -14 11 -7 0 -19 7 -26 15
-7 8 -17 15 -22 15 -6 0 -5 -7 2 -15 10 -12 10 -15 -4 -15 -15 0 -20 15 -17
53 1 9 -3 17 -9 17 -7 0 -9 -7 -6 -16 4 -11 1 -14 -12 -12 -9 2 -19 14 -21 28
-3 23 -4 24 -12 5 -8 -20 -8 -20 -8 0 -1 14 -8 21 -22 21 -16 0 -19 -5 -14
-25 5 -21 4 -23 -9 -12 -18 15 -21 41 -6 41 6 0 10 8 9 18 0 9 -3 12 -5 5 -3
-7 -12 -9 -20 -6 -13 5 -13 7 -2 14 21 14 -4 9 -45 -8z"/>
<path d="M3206 1431 c-3 -5 0 -11 6 -14 10 -3 10 -8 -1 -18 -9 -9 -11 -9 -7
-1 8 13 -6 14 -44 2 -14 -4 -19 -8 -12 -9 7 -1 10 -6 7 -12 -4 -6 -1 -10 6 -8
41 5 89 -2 89 -14 0 -15 101 -51 110 -39 10 14 41 13 93 -2 64 -18 120 -18
144 -1 10 7 16 16 13 18 -5 5 -69 14 -111 16 -9 1 -21 13 -27 27 -7 14 -17 22
-22 19 -6 -4 -8 -10 -5 -14 2 -5 -6 -13 -20 -19 -20 -9 -26 -8 -38 12 -15 22
-47 32 -47 14 0 -4 -7 -8 -15 -8 -8 0 -15 4 -15 9 0 5 -17 15 -37 22 -21 6
-43 16 -50 21 -7 5 -14 5 -17 -1z"/>
</g>
</svg>
