<?xml version="1.0" standalone="no"?>
<!DOCTYPE svg PUBLIC "-//W3C//DTD SVG 20010904//EN"
 "http://www.w3.org/TR/2001/REC-SVG-20010904/DTD/svg10.dtd">
<svg version="1.0" xmlns="http://www.w3.org/2000/svg"
 width="644.000000pt" height="300.000000pt" viewBox="0 0 644.000000 300.000000"
 preserveAspectRatio="xMidYMid meet">
<metadata>
Created by potrace 1.16, written by Peter Selinger 2001-2019
</metadata>
<g transform="translate(0.000000,300.000000) scale(0.100000,-0.100000)"
fill="#000000" stroke="none">
<path d="M4087 2353 c-3 -5 16 -33 43 -61 27 -29 46 -52 43 -52 -3 0 0 -7 7
-15 6 -8 8 -20 4 -27 -6 -10 -3 -9 9 1 13 10 20 11 31 2 11 -9 33 -8 97 5 138
28 259 5 354 -68 47 -36 81 -83 66 -92 -5 -4 -12 -2 -16 3 -3 5 -13 10 -23 10
-137 3 -257 0 -263 -6 -5 -5 27 -6 69 -5 47 3 109 -3 159 -13 106 -22 133 -49
163 -159 21 -78 20 -100 -2 -78 -7 7 -16 12 -22 12 -17 0 28 -29 46 -30 9 0
19 -6 22 -12 14 -30 -5 88 -24 144 -25 78 -25 80 5 66 14 -6 28 -9 31 -5 10
10 -7 48 -19 44 -7 -2 -25 7 -40 19 -16 13 -36 24 -44 24 -9 0 -14 3 -10 6 3
4 -17 30 -44 60 -56 57 -129 98 -199 110 -62 10 -218 6 -258 -7 -34 -11 -82
-5 -82 10 0 9 -8 19 -71 94 -14 16 -29 26 -32 20z"/>
<path d="M1820 2332 c-80 -39 -97 -75 -106 -220 -5 -74 -11 -112 -22 -124 -8
-10 -12 -18 -9 -18 4 0 -11 -34 -34 -76 -22 -42 -38 -78 -36 -81 5 -4 56 78
70 111 4 10 10 16 13 13 3 -3 -4 -23 -15 -46 -12 -22 -21 -43 -21 -46 0 -11
48 -24 70 -18 21 6 22 10 17 76 -5 62 -4 73 18 105 13 19 22 39 19 44 -3 5 0
7 6 6 7 -2 14 5 15 15 4 24 -1 22 -35 -13 -38 -38 -45 -26 -37 63 8 102 26
146 71 175 36 22 47 24 115 19 42 -3 94 -12 115 -19 l39 -14 -37 -18 c-20 -9
-34 -21 -31 -26 3 -4 -3 -6 -12 -4 -26 6 -167 -105 -171 -135 -3 -20 5 -15 60
31 36 30 83 65 106 78 23 13 39 26 37 29 -2 4 5 8 16 9 10 1 28 3 38 4 14 2
17 6 10 14 -12 14 -5 19 36 27 17 4 24 4 18 1 -7 -3 -13 -12 -13 -19 0 -7 -6
-16 -12 -18 -10 -4 -10 -6 -1 -6 7 -1 20 8 30 18 10 11 35 22 56 26 27 5 35
10 25 16 -17 11 -51 12 -44 0 8 -12 -47 -1 -59 13 -15 17 -35 18 -41 1 -7 -18
-35 -20 -51 -4 -13 13 -190 23 -213 11z"/>
<path d="M1203 2122 c-12 -14 -25 -43 -28 -64 -4 -20 -13 -39 -21 -42 -19 -7
-18 -28 2 -24 24 4 52 -107 35 -135 -7 -10 -11 -20 -9 -20 45 -22 49 -28 79
-110 12 -34 25 -55 31 -51 6 4 9 1 6 -7 -3 -8 1 -30 8 -50 l12 -37 -44 -22
c-71 -37 -142 -129 -127 -166 4 -12 3 -15 -5 -10 -7 4 -12 3 -12 -3 0 -6 -14
-18 -31 -27 -31 -15 -31 -16 -10 -30 16 -12 21 -26 21 -62 0 -74 -11 -123 -29
-129 -9 -2 -24 -9 -33 -14 -24 -12 -28 -11 -22 5 3 8 1 17 -5 21 -15 8 -14 87
1 122 6 15 11 31 10 34 -1 4 4 6 11 6 7 0 21 1 32 2 18 1 19 2 3 12 -12 7 -24
6 -37 -1 -11 -5 -29 -10 -40 -10 -16 0 -19 5 -16 33 2 17 6 75 9 127 3 53 14
124 25 159 24 78 83 166 122 183 16 7 29 17 29 22 0 17 -56 -6 -88 -37 -75
-71 -112 -194 -112 -372 0 -140 -14 -177 -70 -189 -24 -4 -31 -10 -26 -21 3
-9 2 -13 -4 -10 -6 3 -10 -3 -10 -14 0 -12 -5 -21 -11 -21 -6 0 -8 -7 -5 -16
3 -8 2 -13 -3 -10 -13 8 -34 -21 -25 -35 4 -7 3 -9 -3 -6 -9 6 -63 -52 -63
-67 0 -3 -13 -27 -28 -53 -34 -58 -46 -86 -32 -78 6 3 10 1 10 -4 0 -25 16 -8
28 29 16 51 115 203 145 223 31 20 61 4 91 -49 30 -53 38 -85 24 -101 -6 -7
-8 -31 -5 -53 3 -22 1 -42 -4 -45 -5 -3 -30 -35 -57 -70 -27 -36 -67 -78 -91
-95 -23 -17 -65 -53 -94 -81 -29 -28 -63 -60 -76 -72 l-24 -22 6 75 c6 72 33
174 58 222 11 21 11 22 -4 9 -15 -12 -17 -11 -18 5 -2 60 -79 -250 -79 -318 0
-23 -11 -56 -28 -85 -48 -80 -65 -135 -55 -174 9 -32 12 -34 58 -36 26 -1 57
2 67 8 14 8 24 7 35 -2 21 -18 31 -2 100 141 60 124 102 172 207 235 50 30
149 59 161 46 3 -3 21 -4 39 -3 24 3 38 -2 47 -16 8 -10 25 -22 39 -26 180
-53 343 -75 416 -57 25 7 63 23 83 36 19 14 48 25 64 25 16 0 30 7 34 15 5 14
7 14 23 0 9 -8 19 -14 21 -13 2 2 1 -1 -2 -6 -7 -8 41 -66 55 -66 4 0 28 -16
53 -35 25 -19 50 -35 54 -35 27 0 84 -90 76 -121 -3 -10 1 -23 9 -30 8 -6 14
-19 14 -29 0 -33 52 -55 119 -52 34 2 61 8 61 13 0 5 -6 9 -12 9 -7 0 -26 7
-43 16 -16 9 -39 18 -49 20 -26 5 -37 25 -23 42 6 8 11 52 12 100 1 48 6 96
13 107 11 19 11 18 13 -10 1 -16 1 -38 0 -48 -1 -9 2 -17 8 -17 6 0 8 7 5 15
-5 11 -2 13 10 9 21 -8 20 5 -1 29 -17 19 -17 19 20 13 38 -6 46 1 26 21 -9 9
-6 10 12 6 24 -5 24 -5 4 11 -20 17 -20 17 3 13 12 -3 22 -1 22 4 0 5 -4 9
-10 9 -5 0 -10 5 -10 10 0 6 6 10 13 10 8 0 12 12 12 35 -1 20 2 32 8 28 6 -4
8 2 5 15 -4 15 0 23 13 27 14 5 19 16 19 46 0 21 5 39 10 39 6 0 10 -8 10 -18
0 -13 7 -18 23 -17 12 1 22 8 22 16 0 8 -8 13 -20 11 -18 -2 -18 -2 -2 8 9 6
17 21 17 33 0 15 7 23 23 24 12 1 29 3 37 4 85 11 124 -18 77 -55 -21 -17 -27
-31 -27 -60 0 -32 -7 -44 -40 -75 -22 -20 -40 -42 -40 -50 0 -22 -94 -160
-113 -167 -9 -3 -15 -10 -12 -15 4 -5 1 -9 -4 -9 -6 0 -11 -9 -11 -19 0 -11
-7 -27 -17 -36 -12 -13 -13 -19 -4 -24 9 -6 9 -15 1 -36 -11 -29 -2 -44 28
-45 6 0 12 -4 12 -9 0 -17 79 65 119 125 87 130 141 284 141 403 0 65 -9 77
-60 87 l-32 7 4 83 c2 46 8 87 12 91 4 5 47 10 94 12 96 5 81 18 -21 20 -67 1
-73 9 -59 76 5 25 6 45 2 45 -10 0 -28 -42 -35 -83 -6 -29 -13 -36 -48 -48
-31 -10 -41 -11 -45 -1 -7 23 -23 12 -20 -15 2 -14 -2 -28 -9 -30 -8 -3 -10 9
-7 39 4 37 3 40 -6 19 -6 -14 -12 -33 -13 -43 -2 -9 -7 -21 -12 -25 -4 -5 -5
-2 -1 5 4 7 1 12 -8 12 -10 0 -16 9 -16 24 0 13 -3 38 -6 56 -8 37 -23 22 -25
-25 -1 -28 -1 -28 -8 -6 -3 13 -17 31 -29 39 -25 17 -25 19 9 -63 17 -42 12
-53 -56 -118 -38 -37 -74 -67 -79 -67 -21 0 -113 -50 -131 -72 -19 -22 -18
-21 8 2 24 21 30 22 37 10 8 -13 10 -13 10 1 0 11 13 18 40 23 23 3 43 13 46
20 3 9 16 13 32 11 15 -2 30 -4 33 -4 4 -1 7 -11 7 -24 0 -19 -6 -23 -34 -22
-19 0 -34 4 -34 8 0 5 -5 5 -10 2 -7 -4 -6 -13 1 -27 6 -12 7 -18 1 -14 -5 3
-25 -1 -43 -9 -19 -8 -30 -14 -25 -15 6 0 1 -6 -10 -14 -18 -14 -18 -15 10
-26 16 -6 26 -13 23 -16 -3 -3 -14 -1 -26 5 -13 7 -22 8 -26 1 -3 -5 1 -10 9
-10 8 0 18 -5 22 -11 4 -8 -1 -9 -17 -4 -22 7 -23 7 -9 -11 8 -10 19 -22 23
-25 12 -9 16 -58 6 -65 -5 -3 -11 1 -14 8 -3 8 -19 15 -36 16 -51 4 -75 48
-44 82 18 20 10 50 -12 50 -9 0 -21 -7 -27 -14 -7 -10 -33 -16 -75 -17 -61 -3
-140 -18 -151 -29 -3 -3 -18 -14 -34 -24 -20 -13 -25 -20 -16 -26 9 -6 7 -10
-9 -15 -11 -3 -21 -11 -21 -16 0 -5 -21 -9 -46 -9 -36 0 -45 3 -41 14 9 22
-33 33 -45 12 -7 -13 -26 -16 -91 -15 -45 0 -101 -2 -124 -5 -23 -3 -45 -2
-48 4 -3 5 -13 6 -22 3 -13 -5 -15 -1 -11 21 5 25 3 27 -18 22 -14 -4 -24 -2
-24 4 0 5 9 10 19 10 10 0 21 7 25 15 4 11 -1 15 -19 15 -13 0 -27 -5 -30 -10
-4 -6 -11 -8 -16 -4 -16 10 29 36 50 29 12 -3 21 0 25 10 3 9 10 13 16 10 6
-4 7 1 3 11 -4 12 -3 15 5 10 17 -10 15 -33 -3 -40 -22 -8 -18 -24 8 -32 12
-4 24 -10 27 -15 3 -4 12 -4 20 1 12 7 10 12 -8 29 -14 11 -19 22 -13 25 6 4
20 -3 32 -15 16 -16 21 -18 16 -6 -4 11 -1 17 8 17 9 0 12 6 8 17 -5 12 -2 15
10 10 8 -3 18 -1 21 6 3 7 4 -3 3 -21 -1 -22 -5 -31 -14 -28 -7 3 -13 1 -13
-4 0 -6 12 -10 26 -10 19 0 25 4 20 15 -6 16 -1 19 47 29 15 4 25 11 22 17 -5
7 -12 6 -21 -2 -8 -6 -14 -7 -14 -3 0 5 9 15 20 22 11 7 20 17 20 23 0 8 -4 8
-14 0 -11 -9 -15 -6 -18 19 -3 22 -1 29 8 26 15 -6 25 16 14 34 -6 10 -9 9
-13 -1 -4 -11 -8 -10 -23 4 -11 10 -14 17 -6 17 7 0 12 10 10 23 -2 12 -1 22
2 23 3 0 15 6 28 13 19 10 28 10 47 -3 16 -10 22 -22 19 -34 -3 -9 1 -6 10 8
8 14 10 27 5 28 -5 2 -7 8 -3 13 3 5 -9 9 -25 9 -17 0 -31 4 -31 8 0 4 15 8
34 8 26 0 38 -6 47 -23 11 -20 10 -25 -4 -36 -12 -8 -14 -16 -7 -27 5 -8 10
-10 10 -4 0 7 16 10 40 9 22 -1 43 2 47 8 3 6 1 7 -5 3 -6 -3 -17 1 -25 9 -20
19 -31 19 -23 0 3 -8 1 -15 -4 -15 -12 0 -13 20 -1 39 10 16 -9 42 -24 33 -5
-3 -4 2 4 11 12 15 10 17 -15 18 l-29 1 29 8 c29 9 50 5 42 -8 -5 -9 15 -26
34 -30 13 -2 13 0 0 10 -16 14 -25 40 -12 35 4 -1 7 2 7 7 0 5 -16 10 -35 10
-26 1 -37 7 -45 24 -5 12 -17 22 -27 22 -9 0 -19 6 -21 13 -3 7 -6 5 -6 -5 -1
-12 6 -18 20 -18 16 0 19 -4 14 -21 -5 -15 -4 -19 4 -15 6 4 11 3 11 -3 0 -19
-25 -17 -41 3 -15 19 -16 18 -11 -14 7 -48 -15 -29 -23 20 -4 22 -11 43 -16
46 -6 3 -5 11 2 20 10 12 9 17 0 27 -10 9 -11 8 -5 -7 6 -16 4 -17 -14 -7 -29
15 -40 14 -17 -3 18 -13 18 -13 -1 -25 -18 -11 -17 -11 4 -6 20 6 22 3 20 -24
-2 -32 -16 -39 -35 -20 -8 8 -11 7 -10 -4 1 -9 -2 -16 -8 -16 -5 0 -9 7 -8 16
1 10 -2 12 -9 5 -19 -19 0 -45 27 -38 35 9 31 0 -9 -19 -27 -13 -39 -14 -55
-5 -24 12 -26 21 -9 38 9 9 8 12 -5 12 -9 0 -17 -6 -17 -12 0 -9 -3 -8 -10 2
-7 11 -11 9 -19 -13 -14 -35 -14 -40 0 -31 7 4 10 -1 7 -12 -2 -10 -12 -20
-22 -22 -16 -3 -17 1 -11 30 6 30 6 31 -8 14 -10 -13 -16 -16 -21 -7 -4 6 -12
8 -18 5 -6 -4 -9 -3 -6 2 2 5 12 27 22 48 18 41 38 36 29 -8 -4 -19 -3 -19 7
-3 6 9 8 22 5 27 -3 6 -1 10 6 10 7 0 9 3 6 7 -4 3 1 12 11 20 13 10 14 13 2
11 -8 -2 -18 -7 -22 -13 -10 -13 -31 -13 -40 0 -12 16 -9 35 5 35 7 0 14 12
15 26 l2 26 -32 -27 c-21 -18 -34 -23 -36 -15 -2 6 1 17 7 23 16 16 13 30 -5
23 -9 -4 -23 -1 -31 5 -10 9 -17 9 -25 1 -23 -23 -28 -12 -24 50 2 52 6 63 24
69 12 5 22 11 22 14 0 4 -4 3 -10 0 -15 -10 -12 29 5 51 8 10 15 25 15 32 0
26 88 92 122 92 9 0 24 -10 32 -22 9 -12 16 -18 16 -12 0 6 -3 14 -7 18 -17
17 -10 36 15 42 45 10 48 12 16 13 -17 1 -36 7 -42 14 -17 22 -73 158 -79 192
-8 50 23 54 116 15 84 -34 88 -35 72 -16 -18 22 -92 53 -141 61 -78 11 -95 37
-106 153 -6 60 -4 69 14 86 21 18 22 18 57 -3 43 -25 44 -25 41 -5 -2 14 -70
64 -86 64 -3 0 -15 -13 -27 -28z m1338 -1084 c1 -60 -1 -101 -5 -105 -1 -1
-20 -5 -43 -9 l-41 -6 2 83 c1 80 2 83 26 90 57 16 60 14 61 -53z m-541 -324
c0 -30 6 -38 49 -64 36 -22 49 -36 48 -53 -1 -12 2 -32 7 -44 14 -44 -28 -21
-121 65 -40 36 -45 39 -36 16 4 -12 2 -15 -8 -12 -8 3 -14 14 -14 25 0 12 -8
30 -19 42 -10 11 -16 27 -13 35 6 14 84 37 100 29 4 -2 7 -20 7 -39z"/>
<path d="M5205 2005 c-27 -14 -84 -57 -125 -95 -86 -80 -78 -72 -126 -128 -25
-29 -44 -42 -55 -39 -12 3 -16 0 -12 -9 3 -9 13 -12 25 -8 15 4 18 3 13 -6 -5
-9 -4 -11 3 -6 7 4 12 15 12 24 0 15 2 15 10 2 8 -13 10 -12 10 3 0 9 6 17 14
17 8 0 16 5 18 12 6 17 28 0 28 -23 0 -10 3 -19 8 -19 4 0 6 19 4 43 -4 42 -2
45 72 115 75 71 148 118 166 107 6 -3 10 1 10 9 0 18 25 22 33 6 3 -6 4 -5 3
2 -5 23 -59 20 -111 -7z"/>
<path d="M5285 1943 c-10 -69 -102 -279 -133 -303 -24 -20 -24 -20 -3 -20 21
0 51 -21 51 -34 0 -3 -8 -6 -17 -6 -10 -1 33 -14 95 -30 107 -27 212 -77 212
-101 0 -5 6 -9 13 -9 14 0 110 -96 149 -150 63 -87 139 -265 172 -405 22 -90
31 -147 52 -323 12 -104 22 -36 13 88 -17 230 -91 477 -185 620 -61 93 -189
218 -264 259 -67 35 -191 81 -222 81 -28 0 -24 19 37 155 43 97 71 198 60 216
-13 20 -23 7 -30 -38z"/>
<path d="M4975 1581 c-51 -11 -55 -48 -13 -117 29 -47 34 -61 25 -76 -8 -12
-14 -14 -22 -7 -7 8 -6 13 2 16 9 3 8 14 -5 41 -9 20 -20 38 -24 40 -4 2 -18
21 -30 43 -20 36 -45 49 -62 32 -4 -4 3 -16 16 -26 16 -13 19 -20 10 -24 -6
-2 -10 -9 -6 -14 3 -5 0 -9 -7 -9 -18 0 23 -29 42 -30 18 0 62 -44 53 -53 -3
-3 -13 -3 -22 1 -11 3 -6 -8 13 -30 17 -19 34 -33 38 -31 5 3 15 -3 22 -13 19
-25 18 -6 0 26 -16 28 -18 40 -7 40 4 0 15 -18 25 -40 9 -22 19 -40 22 -40 11
0 4 29 -9 43 -9 8 -13 27 -11 43 2 16 4 37 4 47 1 9 6 17 12 17 12 0 39 25 39
37 0 5 -9 25 -20 45 -18 34 -18 37 -2 41 27 7 -49 5 -83 -2z"/>
<path d="M4181 1533 c10 -2 19 -13 22 -24 6 -21 37 -27 37 -6 0 6 5 4 11 -6 6
-9 14 -15 19 -12 5 3 12 0 16 -6 4 -7 3 -9 -3 -6 -6 4 -16 0 -23 -8 -18 -21
-44 -20 -36 2 6 15 5 15 -13 -1 -19 -17 -39 -7 -26 13 3 5 1 12 -5 16 -5 3
-10 2 -10 -4 0 -8 -32 -24 -52 -26 -12 0 -21 -15 -10 -15 7 0 12 -7 12 -15 0
-9 -6 -12 -15 -9 -8 4 -15 12 -15 19 0 8 -5 17 -12 21 -7 5 -8 3 -3 -5 4 -7
-1 -20 -14 -32 -22 -21 -41 -25 -41 -9 0 15 -16 12 -34 -6 -18 -17 -21 -44 -6
-44 5 0 7 6 4 13 -3 8 1 19 8 25 11 9 14 6 15 -10 1 -12 6 -25 12 -31 6 -6 9
-4 8 4 -2 16 4 19 39 19 14 0 23 -4 19 -10 -3 -5 -1 -10 4 -10 6 0 11 -8 11
-17 0 -15 -2 -15 -9 -4 -6 9 -16 11 -27 6 -18 -6 -17 -8 4 -16 12 -4 22 -11
22 -14 0 -4 -6 -3 -12 1 -7 4 -5 -2 5 -13 9 -11 17 -25 17 -32 0 -7 6 -11 14
-8 8 3 27 2 42 -2 21 -5 28 -14 30 -39 2 -18 -1 -32 -6 -32 -6 0 -11 5 -11 10
-1 6 -2 16 -3 23 -1 8 -16 11 -45 10 -54 -3 -93 -26 -84 -50 6 -14 9 -13 25 7
14 17 18 18 18 6 0 -9 16 -23 37 -31 30 -13 35 -18 23 -25 -12 -7 -12 -10 -2
-10 8 0 16 9 19 20 7 28 22 25 16 -2 -3 -17 -2 -19 5 -9 5 7 14 11 20 7 6 -3
16 7 24 24 15 34 46 49 59 29 7 -11 9 -10 9 4 0 9 -4 17 -10 17 -5 0 -10 5
-10 11 0 6 9 9 20 6 11 -3 20 -1 20 4 0 5 5 9 11 9 6 0 8 -9 4 -22 -6 -18 -5
-20 5 -11 8 7 10 18 4 30 -8 19 -11 29 -13 51 0 7 -6 10 -13 6 -7 -4 -8 -3 -4
5 4 6 12 9 17 5 6 -3 19 3 30 15 19 20 19 20 -2 31 -11 6 -47 14 -80 16 -50 5
-59 3 -59 -11 0 -9 -6 -15 -12 -12 -7 2 -12 9 -11 15 1 5 -9 10 -22 10 -27 0
-31 -8 -13 -26 6 -6 9 -14 6 -18 -4 -3 -13 7 -21 22 -8 15 -17 22 -21 16 -4
-6 -15 -2 -31 11 -14 14 -20 26 -15 31 6 6 16 3 27 -6 15 -14 20 -14 30 -3 7
8 10 21 7 29 -5 13 4 15 34 7 1 -1 -2 -10 -8 -21 -10 -18 -7 -20 27 -22 21 -1
46 -2 56 -1 9 0 17 -4 17 -8 0 -5 7 -6 15 -3 8 4 12 11 8 18 -3 6 2 4 13 -5
25 -21 62 -30 70 -17 4 6 -6 22 -21 35 -21 20 -29 23 -36 12 -4 -7 -11 -10
-15 -6 -4 4 0 15 10 26 15 16 15 19 1 24 -8 4 -15 13 -15 22 0 12 -9 14 -40
10 -31 -4 -40 -2 -40 10 0 9 -9 15 -22 14 -16 -1 -18 -3 -7 -6z"/>
<path d="M4791 1434 c-1 -12 6 -27 14 -34 8 -7 19 -27 24 -44 4 -18 14 -30 21
-28 11 3 11 0 1 -12 -8 -9 -11 -26 -7 -39 3 -13 3 -27 -1 -31 -4 -3 -8 -16
-10 -27 -2 -11 -10 -27 -18 -35 -8 -9 -15 -24 -15 -34 0 -13 -6 -18 -25 -16
-13 2 -22 -1 -19 -5 7 -12 -3 -11 -27 1 -10 6 -19 7 -19 3 1 -18 17 -28 46
-28 23 0 30 4 26 14 -4 10 -1 12 8 6 8 -5 27 -10 42 -12 30 -3 37 14 16 35 -8
8 -9 12 -1 12 6 0 13 -5 15 -12 3 -7 10 -8 17 -4 11 7 11 10 0 17 -11 6 -10 9
4 15 9 3 17 14 17 24 0 10 6 20 13 23 9 3 9 8 -2 21 -8 9 -11 19 -8 22 3 3 -1
23 -8 45 l-14 39 24 -6 c15 -4 25 -2 25 5 0 6 -6 11 -14 11 -7 0 -19 7 -26 15
-7 8 -17 15 -22 15 -6 0 -5 -7 2 -15 10 -12 10 -15 -4 -15 -15 0 -20 15 -17
53 1 9 -3 17 -9 17 -7 0 -9 -7 -6 -16 4 -11 1 -14 -11 -12 -9 2 -20 14 -24 28
-6 22 -7 23 -8 4z"/>
<path d="M3261 1312 c-1 -9 -11 -11 -38 -6 -27 5 -39 3 -47 -9 -16 -21 -58
-25 -74 -7 -8 8 -11 9 -7 3 7 -15 -11 -53 -26 -53 -6 0 -7 4 -4 10 3 5 2 18
-4 27 -8 14 -9 11 -6 -14 3 -24 -1 -34 -15 -38 -10 -3 -21 -17 -24 -30 -4 -16
-13 -25 -26 -25 -26 0 -26 17 0 25 11 3 20 15 20 25 0 10 8 21 18 23 10 3 5 5
-12 6 -21 1 -27 -3 -22 -14 6 -16 -21 -35 -41 -28 -6 2 -14 -1 -18 -6 -4 -7 0
-8 11 -4 11 4 15 3 11 -5 -4 -6 7 -20 24 -33 26 -18 33 -19 40 -8 8 12 11 11
20 -4 9 -15 13 -16 26 -5 14 11 16 10 9 -14 -4 -17 -2 -28 4 -28 5 0 10 5 10
10 0 6 7 10 15 10 8 0 15 -4 15 -10 0 -5 -4 -10 -10 -10 -5 0 -7 -6 -4 -14 6
-15 -23 -26 -68 -26 -30 0 -45 -15 -27 -26 8 -4 9 -3 5 4 -4 7 -2 12 3 12 6 0
11 -5 11 -10 0 -6 8 -14 18 -18 9 -4 43 -24 74 -45 33 -22 63 -35 69 -31 7 4
9 3 6 -2 -3 -6 3 -16 15 -23 15 -9 18 -10 13 0 -5 7 -4 10 2 6 14 -9 15 -107
2 -107 -18 0 -8 -18 14 -24 12 -3 28 -15 35 -27 12 -19 11 -25 -17 -53 -41
-42 -39 -53 4 -27 19 11 35 17 35 12 0 -4 18 -13 40 -20 22 -6 47 -23 56 -36
9 -14 22 -25 28 -25 7 0 55 29 107 65 67 46 103 65 126 65 33 0 73 37 96 89
10 20 8 26 -10 38 -21 14 -21 17 -8 43 13 26 20 29 81 32 36 1 68 -1 71 -5 3
-5 15 -6 28 -3 24 6 117 -24 179 -58 60 -32 134 -58 146 -51 6 4 9 1 8 -6 -2
-7 12 -22 30 -35 58 -40 139 -120 204 -202 23 -28 68 -100 68 -107 0 -3 -15
-3 -34 0 -29 6 -36 3 -47 -16 -14 -27 -20 -101 -8 -93 5 3 9 16 9 30 0 13 4
24 9 24 13 0 21 -39 9 -46 -5 -3 -1 -12 9 -20 14 -11 15 -16 5 -22 -9 -6 -5
-12 14 -21 24 -11 26 -10 14 3 -10 13 -10 16 4 16 13 0 16 5 10 23 -6 22 -6
22 15 -2 25 -29 26 -40 6 -47 -11 -5 -7 -11 17 -24 36 -19 50 -42 68 -107 6
-24 22 -55 35 -69 14 -15 25 -35 25 -45 0 -12 13 -24 37 -34 36 -15 39 -15 54
3 8 11 29 23 46 26 41 9 69 43 76 91 6 41 48 88 71 79 13 -5 40 51 32 65 -4 5
-2 12 4 16 5 3 7 17 4 30 -5 20 -1 27 22 37 30 13 74 56 74 72 0 5 16 27 36
50 52 61 58 69 69 91 23 43 44 111 43 138 0 17 9 38 21 50 19 20 23 20 45 7
13 -8 38 -32 55 -52 31 -35 32 -39 17 -60 -23 -33 -21 -51 4 -38 11 6 20 17
20 25 0 21 5 19 45 -19 19 -19 31 -37 26 -40 -5 -4 -12 -2 -15 2 -3 5 -20 9
-38 10 -50 1 -13 -16 50 -24 35 -4 64 -15 82 -31 22 -18 33 -22 47 -14 16 8
19 6 19 -12 0 -12 -5 -25 -10 -29 -8 -5 -7 -8 1 -8 7 0 32 -14 57 -31 25 -17
50 -28 55 -24 5 3 12 1 16 -5 3 -5 0 -10 -7 -11 -7 0 2 -5 20 -12 22 -8 41
-26 56 -52 14 -26 28 -39 39 -37 9 2 17 -2 17 -8 0 -6 -4 -8 -10 -5 -12 7 -1
-55 13 -72 13 -17 30 -16 24 1 -3 7 -1 18 5 24 7 7 1 36 -20 96 -26 72 -29 85
-16 88 13 2 13 7 -5 30 -12 15 -30 51 -40 81 -37 107 -152 294 -173 280 -6 -3
-8 -1 -4 5 7 12 -22 45 -34 37 -4 -3 -7 3 -6 13 0 10 -6 16 -16 16 -10 -1 -18
4 -18 11 0 8 -18 26 -40 42 -37 26 -45 43 -41 86 1 9 -3 17 -8 17 -6 0 -11 -7
-11 -15 0 -8 -4 -15 -10 -15 -5 0 -10 5 -10 11 0 16 -51 64 -105 98 -50 32
-71 39 -60 21 3 -6 2 -10 -4 -10 -5 0 2 -24 17 -54 21 -42 35 -57 60 -66 18
-7 31 -14 29 -17 -10 -10 -100 -4 -107 7 -10 16 -81 20 -108 6 -19 -10 -20
-14 -10 -28 9 -11 19 -13 33 -8 11 5 14 9 8 9 -19 1 -16 21 3 21 12 0 15 -6
10 -25 -4 -15 -2 -25 4 -25 6 0 8 -5 4 -11 -3 -6 -9 -7 -13 -3 -9 13 -31 16
-31 4 0 -5 6 -13 13 -17 8 -4 21 -21 29 -38 8 -16 20 -29 26 -27 7 1 12 -2 12
-6 0 -5 11 -14 24 -20 19 -9 25 -8 30 4 7 17 37 19 34 2 -2 -7 7 -14 20 -16
12 -2 20 -8 16 -13 -3 -5 -10 -7 -15 -4 -5 4 -9 -3 -9 -14 0 -22 14 -28 25
-11 7 12 25 4 25 -12 0 -5 -7 -8 -15 -4 -9 3 -15 0 -15 -9 0 -28 -30 -16 -31
13 -1 16 -3 20 -6 10 -5 -19 -23 -25 -23 -8 0 6 -5 10 -11 10 -6 0 -18 8 -27
18 -10 10 -13 12 -9 5 6 -8 3 -18 -6 -28 -20 -19 -37 -19 -37 0 0 9 -7 18 -15
21 -8 4 -15 13 -15 21 0 11 7 14 27 10 26 -5 27 -4 8 10 -11 8 -19 19 -17 24
1 5 -9 7 -22 3 -13 -3 -33 -1 -44 5 -16 9 -21 7 -25 -8 -3 -13 -1 -18 9 -14 8
3 12 -3 11 -16 -1 -13 -6 -20 -14 -17 -7 3 -13 1 -13 -4 0 -6 -8 -10 -17 -10
-13 0 -14 3 -6 11 13 13 6 39 -9 39 -10 0 -38 25 -38 35 0 3 9 1 19 -5 25 -13
28 -13 35 5 4 11 -2 14 -26 11 -41 -4 -45 -18 -16 -46 16 -15 19 -24 11 -27
-19 -7 10 -32 45 -39 26 -5 30 -3 36 22 7 25 9 26 23 12 15 -16 10 -43 -7 -33
-4 3 -13 -2 -20 -10 -6 -7 -17 -12 -23 -10 -26 9 -97 11 -109 4 -9 -6 -4 -9
15 -9 27 0 36 -13 17 -25 -6 -4 -17 -2 -24 4 -8 7 -16 7 -23 0 -15 -15 -63 10
-63 34 0 16 6 19 34 15 21 -2 32 0 30 7 -2 5 -14 11 -27 11 -12 1 -33 5 -47
10 -22 7 -24 6 -11 -9 15 -19 7 -51 -12 -44 -9 3 -12 -5 -9 -29 2 -19 9 -34
15 -34 5 0 23 -14 39 -32 28 -31 30 -32 111 -30 76 2 142 -12 135 -27 -11 -25
-118 -152 -138 -164 -14 -9 -34 -33 -45 -54 -22 -42 -64 -93 -77 -93 -4 0 -8
11 -8 23 0 13 -9 32 -20 42 -11 10 -20 23 -20 30 0 6 -18 18 -39 25 -23 7 -41
21 -44 31 -3 12 -18 22 -36 25 -26 6 -30 10 -25 30 5 18 2 24 -10 24 -10 0
-16 -8 -16 -21 0 -15 -5 -19 -15 -15 -8 3 -15 1 -15 -4 0 -11 -33 -14 -43 -4
-10 10 17 44 35 44 35 0 21 19 -40 56 -1 1 3 13 9 28 14 30 29 34 29 8 0 -30
30 -63 53 -60 19 3 22 10 23 53 0 82 3 92 29 116 35 32 46 54 38 74 -5 15 -8
15 -23 -5 -26 -35 -116 -40 -164 -10 -20 12 -36 17 -36 11 0 -6 -7 -11 -16
-11 -10 0 -13 6 -9 19 4 12 0 21 -11 25 -28 11 -38 -9 -19 -38 23 -35 15 -51
-28 -51 -21 0 -37 3 -37 6 0 3 -11 19 -25 35 -19 22 -27 26 -37 16 -9 -9 -7
-19 12 -43 19 -27 21 -35 11 -51 -9 -14 -9 -23 -1 -33 6 -7 8 -19 5 -28 -4
-10 9 -26 39 -48 47 -33 63 -59 24 -38 -58 31 -96 75 -134 154 -36 76 -36 97
1 50 18 -21 21 -31 12 -37 -8 -5 -6 -8 6 -8 10 0 16 -4 12 -9 -3 -5 -1 -12 5
-16 15 -9 12 8 -11 61 -19 45 -19 49 -4 60 13 10 14 17 5 33 -12 24 -32 29
-24 6 4 -8 1 -15 -6 -15 -7 0 -10 -7 -6 -16 5 -14 4 -15 -9 -4 -8 7 -12 17 -8
23 3 6 1 7 -6 3 -9 -6 -9 -11 0 -22 9 -11 9 -17 -1 -29 -6 -8 -9 -18 -6 -24
11 -18 -27 -21 -48 -4 -69 60 -67 57 -51 80 8 12 25 23 36 25 18 3 14 8 -26
37 -43 31 -46 32 -34 10 11 -22 11 -23 -4 -10 -15 12 -17 11 -17 -12 0 -35
-15 -42 -34 -16 -9 14 -21 19 -31 15 -10 -3 -14 -2 -9 5 3 6 -4 20 -16 31 -17
16 -19 22 -8 29 8 6 9 9 1 9 -6 0 -9 9 -5 22 4 17 2 20 -12 15 -10 -4 -19 -7
-21 -7 -2 0 -7 -16 -11 -35 -3 -19 -11 -38 -16 -41 -12 -8 -127 16 -134 27 -3
5 -10 9 -17 9 -6 0 -3 -6 8 -13 14 -11 15 -16 5 -22 -8 -5 -18 -2 -25 8 -9 12
-28 17 -68 17 -31 0 -59 5 -62 10 -3 6 -3 10 2 10 4 0 16 12 26 25 15 21 15
25 3 25 -8 0 -22 -7 -30 -16 -9 -8 -36 -22 -61 -30 -25 -9 -45 -20 -45 -25 0
-5 -6 -9 -14 -9 -8 0 -16 -7 -20 -15 -4 -12 0 -14 22 -9 l27 6 -23 -19 c-13
-10 -21 -25 -18 -33 7 -19 -13 -45 -41 -54 -12 -4 -25 -15 -28 -26 -3 -10 -31
-38 -63 -61 -45 -35 -68 -45 -111 -49 -53 -6 -53 -6 -76 30 -26 42 -46 105
-37 116 4 4 2 4 -4 1 -23 -13 -34 17 -18 48 20 39 21 40 38 26 12 -10 14 -8
12 13 -3 20 1 26 15 26 13 0 17 -5 13 -17 -3 -10 2 -6 11 10 8 15 20 27 25 27
6 0 11 21 11 48 1 48 14 115 19 97 7 -24 8 -33 9 -87 1 -44 5 -58 16 -58 8 0
15 4 15 9 0 14 38 20 44 7 2 -6 5 -1 5 11 1 12 6 34 11 49 8 21 14 24 22 16
17 -17 28 -15 22 3 -4 8 -14 15 -23 16 -12 0 -10 3 7 11 12 6 22 15 22 20 0
11 -7 10 -31 -2 -15 -9 -21 -7 -25 5 -3 8 -12 15 -20 15 -8 0 -14 6 -14 13 -1
7 -6 5 -14 -6 -15 -20 -27 -11 -17 13 7 17 41 23 41 8 0 -5 4 -7 9 -4 5 3 11
-1 15 -9 7 -19 26 -19 26 0 0 9 6 12 15 9 8 -4 12 -10 9 -15 -3 -5 -1 -9 4 -9
9 0 22 32 22 58 0 6 -5 12 -11 12 -6 0 -9 -6 -6 -14 3 -8 -1 -17 -10 -20 -11
-5 -14 -1 -10 13 2 10 1 25 -4 32 -7 11 -9 11 -9 1 0 -7 -5 -10 -10 -7 -6 4
-8 11 -5 16 4 5 2 9 -4 9 -5 0 -17 3 -27 7 -13 5 -16 3 -12 -8 4 -10 -1 -15
-12 -15 -10 0 -17 3 -15 7 3 3 -8 4 -23 1 -24 -5 -24 -6 -7 -13 19 -7 19 -8
-2 -8 -16 -1 -23 5 -23 17 0 10 -7 19 -15 19 -8 0 -15 -3 -15 -6 0 -4 -11 -8
-25 -9 -14 -1 -25 3 -25 9 0 5 -4 7 -10 4 -5 -3 -10 -1 -10 5 0 6 -4 8 -10 5
-5 -3 -10 -1 -10 5 0 7 7 10 15 7 8 -4 17 -1 21 5 5 7 2 8 -6 3 -10 -6 -12 -4
-7 9 4 9 3 15 -2 11 -5 -3 -12 1 -14 7 -4 10 -6 10 -6 0z m-111 -134 c0 -5 -6
-8 -13 -6 -7 2 -14 0 -15 -4 -4 -15 10 -38 24 -38 8 0 17 -7 20 -15 5 -12 8
-12 20 -1 7 8 25 13 39 12 14 -2 25 1 25 7 0 5 7 3 17 -4 9 -8 18 -12 20 -11
3 2 7 1 9 -2 2 -3 1 -4 -2 -1 -18 13 -68 -82 -58 -109 3 -7 -7 -18 -21 -24
-21 -10 -30 -9 -50 4 -13 9 -30 12 -36 8 -7 -4 -9 -3 -6 3 8 13 -20 26 -35 16
-6 -3 -8 -1 -4 5 3 5 0 12 -6 15 -10 3 -10 7 -1 17 10 11 19 8 50 -15 21 -16
42 -35 46 -42 4 -7 13 -13 19 -13 7 0 6 5 -2 15 -7 8 -9 15 -4 15 4 0 -3 11
-16 25 -17 18 -19 25 -9 26 8 0 2 5 -13 11 -23 8 -27 14 -22 34 4 15 2 24 -5
24 -6 0 -11 7 -11 15 0 8 -4 15 -10 15 -5 0 -10 5 -10 10 0 6 7 10 15 10 8 0
15 4 15 10 0 5 7 7 15 4 8 -4 15 -10 15 -16z m2426 -245 c-5 -5 110 -118 117
-115 5 1 6 -2 2 -8 -3 -5 11 -36 33 -67 41 -62 92 -165 92 -186 0 -6 -13 2
-29 19 -15 17 -35 33 -45 37 -9 4 -19 15 -23 24 -4 10 -27 40 -52 66 -25 26
-46 54 -47 63 -1 8 -20 31 -42 52 -44 41 -62 70 -62 101 0 16 6 20 29 18 16
-1 28 -3 27 -4z m-331 -130 c-7 -18 -14 -68 -16 -109 -1 -20 -5 -21 -33 -13
-17 5 -32 14 -34 19 -2 6 -8 10 -13 10 -6 0 -8 -4 -5 -9 12 -18 -62 -22 -89
-5 -14 9 -25 14 -25 10 0 -3 -9 3 -20 14 -11 11 -31 20 -45 20 -16 0 -25 6
-25 15 0 21 39 19 77 -5 36 -22 97 -24 114 -3 12 14 34 19 25 5 -2 -4 4 -8 14
-8 10 0 16 4 14 8 -7 11 38 68 54 68 9 0 12 -6 7 -17z m-389 -541 c12 -8 24
-36 30 -72 2 -14 6 -35 9 -47 10 -41 -43 -70 -116 -65 -21 2 -79 53 -79 69 0
7 -5 13 -11 13 -6 0 -8 9 -4 21 5 13 2 25 -6 30 -7 4 -10 11 -7 14 4 4 13 3
20 -1 20 -13 38 -13 38 -2 0 6 7 8 15 4 8 -3 15 -1 15 4 0 19 31 10 55 -16 23
-24 28 -23 27 6 0 3 -3 15 -7 28 -6 22 1 28 21 14z"/>
<path d="M5015 1250 c-18 -8 -18 -9 5 -10 23 -1 23 -2 5 -9 -11 -5 -24 -6 -29
-3 -5 3 -6 -3 -3 -13 8 -19 -10 -48 -24 -39 -5 2 -11 -6 -15 -20 -3 -14 -14
-28 -24 -31 -23 -7 -53 -41 -57 -64 -4 -27 22 -44 61 -39 19 2 32 0 30 -4 -3
-4 -12 -8 -19 -8 -9 0 -12 -6 -8 -16 4 -11 8 -12 13 -4 4 6 20 9 40 5 29 -5
32 -4 20 10 -8 10 -9 15 -1 15 11 0 15 -13 12 -37 -1 -7 5 -13 14 -13 10 0 13
-5 9 -12 -4 -7 -3 -8 5 -4 9 6 9 11 1 21 -6 7 -10 17 -9 21 4 23 -3 34 -21 34
-11 0 -20 4 -20 10 0 5 -6 7 -14 4 -8 -3 -16 4 -19 17 -5 19 -8 20 -22 9 -21
-18 -31 -5 -11 15 9 9 16 22 16 28 0 8 3 8 11 0 6 -6 18 -9 25 -6 8 3 14 0 14
-6 0 -6 -4 -11 -10 -11 -5 0 -6 -8 -3 -17 4 -11 8 -12 11 -5 6 19 22 14 22 -7
0 -10 9 -21 21 -24 15 -4 19 -2 15 9 -3 8 -1 14 5 14 16 0 22 -29 9 -45 -10
-12 -7 -20 14 -46 24 -29 26 -29 24 -7 -2 13 -9 28 -17 34 -12 9 -12 12 -1 19
9 5 15 4 18 -4 3 -8 8 -6 18 6 13 17 13 17 14 -4 0 -27 18 -39 33 -24 8 8 8
11 -1 11 -7 0 -12 8 -10 18 2 12 -5 18 -24 20 -17 2 -28 9 -28 18 0 11 6 13
20 9 11 -4 20 -2 20 4 0 13 32 14 46 2 11 -11 144 -19 144 -8 0 4 -9 7 -19 7
-11 0 -31 15 -46 33 -16 20 -23 25 -19 12 4 -11 12 -26 17 -33 17 -22 -21 -2
-53 28 -17 16 -29 34 -27 42 2 7 2 10 0 6 -3 -5 -12 -8 -21 -8 -15 0 -15 2 -2
10 16 10 13 12 -38 14 -36 2 -36 3 -16 -74 4 -15 3 -22 -2 -17 -5 5 -14 25
-20 45 -7 28 -15 36 -29 34 -17 -3 -17 -3 0 15 18 17 18 18 1 21 -10 2 -15 10
-12 18 6 15 -2 44 -13 43 -3 0 -15 -4 -26 -9z"/>
<path d="M2188 1163 c-45 -50 -79 -123 -82 -178 -1 -5 -11 -10 -23 -11 -12 -1
-30 -5 -40 -9 -10 -5 -30 -9 -44 -9 -27 -1 -27 -1 -9 24 10 14 32 38 49 54 20
19 31 40 31 57 0 14 10 38 21 53 35 44 13 42 -32 -3 -26 -25 -49 -39 -57 -36
-12 4 -14 -2 -9 -30 5 -33 4 -36 -16 -30 -18 5 -19 4 -7 -5 11 -8 12 -13 3
-16 -7 -3 -9 -12 -6 -21 5 -12 3 -14 -7 -8 -9 5 -11 4 -6 -3 4 -6 2 -20 -3
-30 -8 -16 -6 -21 16 -31 21 -10 28 -9 34 1 6 10 11 10 20 1 8 -8 16 -6 30 8
26 26 63 26 54 -1 -4 -11 -2 -20 4 -20 6 0 12 6 13 13 3 27 5 34 21 82 10 28
33 75 52 105 l35 55 -35 -39 c-19 -22 -35 -34 -35 -28 0 6 14 27 31 47 36 41
34 48 -3 8z"/>
<path d="M1843 919 c9 -5 23 -7 30 -3 8 5 7 2 -2 -9 -14 -17 -37 -24 -27 -8 4
5 -5 4 -19 -2 -20 -9 -24 -17 -20 -34 7 -28 -11 -31 -20 -4 -7 23 -37 17 -79
-16 -26 -21 -27 -23 -10 -47 11 -18 25 -26 44 -26 26 0 60 26 60 47 0 11 32
43 43 43 4 0 7 -13 7 -30 0 -33 11 -38 34 -15 22 23 49 20 41 -5 -8 -25 15
-27 55 -3 25 14 27 19 18 45 -5 15 -14 28 -20 28 -6 0 -7 7 -4 16 3 9 3 14 -1
12 -26 -13 -105 -48 -109 -48 -15 0 1 23 26 39 l31 18 -32 7 c-17 3 -39 6 -48
6 -14 -1 -14 -2 2 -11z"/>
</g>
</svg>
